<?xml version="1.0" encoding="utf-8"?>
<!-- Generator: Adobe Illustrator 24.1.0, SVG Export Plug-In . SVG Version: 6.00 Build 0)  -->
<svg version="1.1" id="Layer_1" xmlns="http://www.w3.org/2000/svg" xmlns:xlink="http://www.w3.org/1999/xlink" x="0px" y="0px"
	 viewBox="0 0 106.4 35.4" style="enable-background:new 0 0 106.4 35.4;" xml:space="preserve">
<style type="text/css">
	.st0{clip-path:url(#SVGID_2_);fill:url(#SVGID_3_);}
	.st1{fill:#1D1D1B;}
</style>
<g>
	<g>
		<defs>
			<path id="SVGID_1_" d="M52.4,10.7c0-0.2-0.2-0.4-0.6-0.4c-0.4,0-0.6,0.1-0.6,0.4c0,0,0,3.4,0,3.4l4.2,0v-1.6
				c0-0.7,0.6-1.3,1.3-1.3s1.3,0.6,1.3,1.3v1.6l6.5,0v-1.7c0-0.7,0.6-1.3,1.3-1.3c0.7,0,1.3,0.6,1.3,1.3v1.7l4.4,0c0,0,0-3.3,0-3.5
				c0-0.3-0.2-0.4-0.6-0.4c-0.4,0-0.4,0.2-0.5,0.3c-0.1-0.1-0.2-0.3-0.5-0.3c-0.3,0-0.5,0.1-0.6,0.4h0c0-0.2-0.1-0.4-0.6-0.4
				c-0.4,0-0.4,0.2-0.5,0.3c-0.1-0.1-0.2-0.3-0.5-0.3c-0.4,0-0.6,0.1-0.7,0.3h0c0-0.2-0.3-0.4-0.6-0.4c-0.3,0-0.5,0.1-0.6,0.4h0
				c0-0.2-0.3-0.4-0.6-0.4c-0.3,0-0.5,0.1-0.6,0.4h0c0-0.2-0.3-0.4-0.6-0.4c-0.3,0-0.5,0.1-0.6,0.4h0c0-0.2-0.3-0.4-0.6-0.4
				c-0.3,0-0.5,0.1-0.6,0.4h0c0-0.2-0.3-0.4-0.6-0.4c-0.3,0-0.5,0.1-0.6,0.4h0c0-0.2-0.3-0.4-0.6-0.4c-0.3,0-0.5,0.1-0.6,0.4h0
				c0-0.2-0.3-0.4-0.6-0.4c-0.3,0-0.5,0.1-0.6,0.4h0c0-0.2-0.3-0.4-0.6-0.4c-0.3,0-0.5,0.1-0.6,0.4h0c0-0.2-0.3-0.4-0.6-0.4
				c-0.3,0-0.5,0.1-0.6,0.4h0c0-0.2-0.3-0.4-0.6-0.4c-0.3,0-0.5,0.1-0.6,0.4h0c0-0.2-0.3-0.4-0.6-0.4c-0.3,0-0.5,0.1-0.6,0.4h0
				c0,0,0,0,0,0c0-0.3-0.2-0.4-0.6-0.4C52.6,10.4,52.4,10.5,52.4,10.7 M56,7.7c0-0.3,0.3-0.6,0.6-0.6c0.3,0,0.6,0.3,0.6,0.6
				c0,0.3-0.3,0.6-0.6,0.6C56.3,8.4,56,8.1,56,7.7 M65.7,8.3c-0.3-0.1-0.6-0.4-0.5-0.7c0.1-0.3,0.4-0.6,0.7-0.5
				c0.3,0.1,0.6,0.4,0.5,0.7c-0.1,0.3-0.3,0.5-0.6,0.5C65.7,8.4,65.7,8.4,65.7,8.3 M52.1,8.3v1.2c0.2,0.1,0.2,0.1,0.2,0.1h0.1
				c0.1-0.1,0.3-0.2,0.5-0.2c0.3,0,0.5,0.1,0.6,0.2h0.1c0.1-0.1,0.3-0.2,0.5-0.2c0.3,0,0.5,0.1,0.6,0.2h0.1c0.1-0.1,0.3-0.2,0.5-0.2
				c0.3,0,0.5,0.1,0.6,0.2h0.1c0.1-0.1,0.3-0.2,0.5-0.2c0.3,0,0.5,0.1,0.6,0.2h0.1c0.1-0.1,0.3-0.2,0.5-0.2c0.3,0,0.5,0.1,0.6,0.2
				h0.1c0.1-0.1,0.3-0.2,0.5-0.2c0.3,0,0.5,0.1,0.6,0.2h0.1c0.1-0.1,0.3-0.2,0.5-0.2c0.3,0,0.5,0.1,0.6,0.2h0.1
				c0.1-0.1,0.3-0.2,0.5-0.2c0.3,0,0.5,0.1,0.6,0.2h0.1c0.1-0.1,0.3-0.2,0.5-0.2c0.3,0,0.5,0.1,0.6,0.2h0.1c0.1-0.1,0.3-0.2,0.5-0.2
				c0.3,0,0.5,0.1,0.6,0.2h0.1c0.1-0.1,0.3-0.2,0.5-0.2c0.3,0,0.5,0.1,0.6,0.2h0.1c0.1-0.1,0.3-0.2,0.5-0.2c0.3,0,0.5,0.1,0.6,0.2
				H67c0.1-0.1,0.3-0.2,0.5-0.2c0.3,0,0.4,0.1,0.5,0.2c0.1-0.1,0.3-0.2,0.5-0.2c0.3,0,0.5,0.1,0.6,0.2h0.1c0.1-0.1,0.3-0.2,0.5-0.2
				c0.3,0,0.4,0.1,0.5,0.2l0-1.2L65.8,6l-4.3,2.3L56.7,6L52.1,8.3z M50.4,3.8c0.3,0.1,0.5,0.5,0.5,0.9v1.5h-1v0.2h1.5v0V6.2V4.7
				c0-0.5-0.3-0.9-0.6-0.9C50.8,3.8,50.5,3.8,50.4,3.8 M62.4,0.1C62.4,0.1,62.4,0.1,62.4,0.1l-1.3,1.7l-1.3-1.6c0,0,0,0,0,0
				c0,0,0,0,0,0h0l0,0l0,0l0.4,1.9l-2.2-0.4l0,0l0,0c0,0,0,0,0,0c0,0,0,0,0,0L59.8,3l-1.8,1.1c0,0,0,0,0,0c0,0,0,0,0,0v0l0.1,0
				l2.2-0.4l-0.4,2l0,0l0,0c0,0,0,0,0,0c0,0,0,0,0,0l1.3-1.6l1.3,1.6c0,0,0,0,0,0c0,0,0,0,0,0h0l0,0l-0.4-2l2.2,0.4l0,0l0,0l0,0
				c0,0,0,0,0,0c0,0,0,0,0,0L62.5,3l1.8-1.1c0,0,0,0,0,0c0,0,0,0,0,0v0l-0.1,0l0,0l-2.2,0.4L62.4,0.1L62.4,0.1L62.4,0.1L62.4,0.1
				C62.5,0.1,62.5,0.1,62.4,0.1 M46.5,4.5c0-0.4,0.4-0.7,0.8-0.7s0.8,0.3,0.8,0.7v1.7h-1.6V4.5z M44.4,3.1h1.3v5.4H44
				c-0.8-0.9-2-1.4-3.3-1.4c-1.3,0-2.5,0.6-3.3,1.4l-2.7,0.1l-0.1,5.4h3.5v-2.6c0-1.3,1.1-2.4,2.4-2.4h0.2c1.3,0,2.4,1.1,2.4,2.4
				v2.6H49V8.5V7v-4h4.2L49,0L44.4,3.1z"/>
		</defs>
		<clipPath id="SVGID_2_">
			<use xlink:href="#SVGID_1_"  style="overflow:visible;"/>
		</clipPath>
		
			<linearGradient id="SVGID_3_" gradientUnits="userSpaceOnUse" x1="-380.8411" y1="314.965" x2="-380.5742" y2="314.965" gradientTransform="matrix(137.4968 0 0 -137.4968 52399.1758 43313.7852)">
			<stop  offset="0" style="stop-color:#E8AD8C"/>
			<stop  offset="2.416512e-02" style="stop-color:#EBB595"/>
			<stop  offset="8.840591e-02" style="stop-color:#F1C7A9"/>
			<stop  offset="0.1539" style="stop-color:#F5D2B4"/>
			<stop  offset="0.2221" style="stop-color:#F6D5B8"/>
			<stop  offset="0.2681" style="stop-color:#F1CDB0"/>
			<stop  offset="0.3395" style="stop-color:#E4B79A"/>
			<stop  offset="0.4274" style="stop-color:#CE9476"/>
			<stop  offset="0.5273" style="stop-color:#B06345"/>
			<stop  offset="0.5521" style="stop-color:#A85638"/>
			<stop  offset="0.7464" style="stop-color:#9F5439"/>
			<stop  offset="0.8531" style="stop-color:#C5724B"/>
			<stop  offset="0.9548" style="stop-color:#A35D3D"/>
			<stop  offset="1" style="stop-color:#A35D3D"/>
		</linearGradient>
		<rect x="34.7" y="0" class="st0" width="36.7" height="14.2"/>
	</g>
	<path class="st1" d="M41.5,34.5l0.1,0l-0.2,0.7h-2.6l0.2-0.1c0.2-0.1,0.3-0.2,0.3-0.6v-1.9c0-0.3-0.1-0.5-0.3-0.6l-0.2-0.1h2.6
		l0.1,0.7l-0.1,0l0,0c-0.2-0.3-0.4-0.5-0.9-0.5h-0.3v1.2l0.4,0c0.2,0,0.4-0.1,0.5-0.2c0,0,0.1-0.1,0.1-0.2l0,0h0.1v1h-0.1l0,0
		c0-0.2-0.3-0.4-0.6-0.4l-0.1,0h-0.3v0.9c0,0.4,0,0.5,0.3,0.5C41,35.1,41.3,34.9,41.5,34.5L41.5,34.5z M37.8,33.7
		c0,0.5-0.2,0.9-0.5,1.2c-0.3,0.3-0.8,0.4-1.5,0.4l-0.7,0h-1.1l0.2-0.1c0.2-0.1,0.3-0.2,0.3-0.6v-1.8c0-0.4,0-0.5-0.2-0.6l-0.2-0.1
		h1.2c0.2,0,0.3,0,0.4,0c0.5,0,0.9,0.1,1.2,0.2C37.5,32.6,37.8,33.1,37.8,33.7 M36.9,33.7c0-0.5-0.2-1-0.6-1.2
		c-0.2-0.1-0.5-0.2-0.8-0.2l-0.3,0v2.3c0,0.5,0.1,0.5,0.3,0.5C36.4,35.1,36.9,34.6,36.9,33.7 M44.5,33.3c-0.6-0.2-0.7-0.3-0.7-0.6
		c0-0.3,0.2-0.5,0.5-0.5c0.4,0,0.8,0.3,0.9,0.7l0,0l0.1,0l0-0.9h-0.1l0,0c-0.1,0.1-0.1,0.1-0.2,0.1c0,0,0,0-0.1,0
		C44.7,32,44.4,32,44.2,32c-0.7,0-1.2,0.4-1.2,1c0,0.2,0.1,0.4,0.2,0.5c0.1,0.2,0.4,0.3,0.8,0.5c0.6,0.2,0.8,0.4,0.8,0.6
		c0,0.3-0.3,0.5-0.6,0.5c-0.5,0-0.9-0.3-1.1-0.9l0,0H43l0,0.7l0,0c0.2,0.2,0.8,0.4,1.2,0.4c0.8,0,1.3-0.4,1.3-1
		c0-0.2-0.1-0.4-0.2-0.6C45.2,33.6,44.9,33.4,44.5,33.3 M44.6,22.9c-1.4-0.6-1.5-0.6-1.8-0.8c-0.2-0.2-0.3-0.4-0.3-0.7
		c0-0.5,0.4-1,1-1c1-0.1,1.7,0.5,1.9,1.1h0.3l0-1.3l-0.3,0l0,0c0,0.1-0.1,0.2-0.3,0.1c0,0-0.1,0-0.2-0.1c-0.5-0.2-1-0.3-1.5-0.3
		h-0.3c-1.4,0-2.3,0.8-2.3,1.9c0,0.9,0.6,1.5,2.2,2.2l0.1,0.1c0.6,0.2,0.6,0.2,0.8,0.3c0.5,0.3,0.7,0.7,0.7,1.1
		c0,0.7-0.5,1.2-1.2,1.2c-1.4-0.1-2.1-1.1-2.4-1.8h-0.2l0,1.4l0,0c0.1,0.1,0.2,0.1,0.4,0.2c0.8,0.4,1.6,0.6,2.4,0.6
		c0.8,0,1.5-0.2,1.9-0.6c0.5-0.4,0.8-1,0.8-1.6c0-0.4-0.1-0.7-0.3-1C45.7,23.5,45.3,23.2,44.6,22.9 M19.7,25
		c-0.5,0.8-1.5,1.3-2.4,1.3c-0.5,0-0.6-0.2-0.6-0.8l0-0.4v-1.5H17h0.3h0c0.7,0,1.3,0.2,1.6,0.7H19l0-2.1h-0.1
		c-0.2,0.6-0.8,0.7-1.6,0.7h-0.2h-0.4v-2.3h0.5c1,0,1.7,0.2,2.1,0.9h0.3l-0.1-1.5c0,0-0.5,0-1,0h-0.3h-3.9h-0.3l0.3,0.1
		c0.5,0.2,0.7,0.5,0.7,1.2v3.8c0,1.1-0.1,1.4-0.7,1.6l-0.3,0.1h0.3h5.1L20,25H19.7z M53.1,25c-0.5,0.8-1.5,1.3-2.4,1.3
		c-0.5,0-0.6-0.2-0.6-0.8l0-0.4v-1.5h0.3h0.3h0c0.7,0,1.3,0.2,1.6,0.7h0.1l0-2.1h-0.1c-0.2,0.6-0.8,0.7-1.6,0.7h-0.2h-0.4v-2.3h0.5
		c1,0,1.7,0.2,2.1,0.9H53l-0.1-1.5c0,0-0.5,0-1,0h-0.3h-3.9h-0.3l0.3,0.1c0.5,0.2,0.7,0.5,0.7,1.2v3.8c0,1.1-0.1,1.4-0.7,1.6
		l-0.3,0.1h0.3h5.1l0.5-1.9H53.1z M69,25c-0.5,0.8-1.5,1.3-2.4,1.3c-0.5,0-0.6-0.2-0.6-0.8l0-0.4v-1.5h0.3h0.3h0
		c0.7,0,1.3,0.2,1.6,0.7h0.1l0-2.1h-0.1c-0.2,0.6-0.8,0.7-1.6,0.7h-0.2H66v-2.3h0.5c1,0,1.7,0.2,2.1,0.9H69l-0.1-1.5c0,0-0.5,0-1,0
		h-0.3h-3.9h-0.3l0.3,0.1c0.5,0.2,0.7,0.5,0.7,1.2v3.8c0,1.1-0.1,1.4-0.7,1.6l-0.3,0.1h0.3h5.1l0.5-1.9H69z M97.3,25
		c-0.5,0.8-1.5,1.3-2.4,1.3c-0.5,0-0.6-0.2-0.6-0.8l0-0.4v-1.5h0.3h0.3h0c0.7,0,1.3,0.2,1.6,0.7h0.1l0-2.1h-0.1
		c-0.2,0.6-0.8,0.7-1.6,0.7h-0.2h-0.4v-2.3h0.5c1,0,1.7,0.2,2.1,0.9h0.3l-0.1-1.5c0,0-0.5,0-1,0h-0.3H92h-0.3l0.3,0.1
		c0.5,0.2,0.7,0.5,0.7,1.2v3.8c0,1.1-0.1,1.4-0.7,1.6l-0.3,0.1H92h5.1l0.5-1.9H97.3z M32.2,27.2c-2.2,0-4-1.6-4-3.6s1.8-3.6,4-3.6
		c2.2,0,4,1.6,4,3.6S34.4,27.2,32.2,27.2 M34.3,23.5c0-1.7-0.9-3-2.1-3c-1.2,0-2.1,1.4-2.1,3c0,1.7,0.9,3,2.1,3
		C33.3,26.5,34.3,25.2,34.3,23.5 M5.7,20.1H5.4l0.2,0.1c0.4,0.2,0.5,0.6,0.5,1.3v3l-3.7-4.5H2.1H0.4H0.1l0,0.1
		c0.1,0,0.5,0.3,0.8,0.6v4.8c0,0.7-0.2,1-0.7,1.2L0,26.9h0.3h2.3c-0.3-0.1-0.5-0.4-0.6-0.6c-0.1-0.2-0.1-0.4-0.1-0.7v-3.8l4,5.1l0,0
		h0.3h0.7h0.3v-5.3c0-0.7,0.1-1,0.5-1.3l0.2-0.2H7.1H5.7z M11.8,25.9v-4.5c0-0.7,0-0.8,0.4-1.1l0.1-0.1h-0.3H11h0H9.8H9.6l0.1,0.1
		c0.4,0.3,0.5,0.4,0.4,1.1v4.5c0,0.5-0.1,0.7-0.5,1l-0.1,0.1h0.3H11h0h1.1h0.3l-0.1-0.1C11.9,26.5,11.8,26.4,11.8,25.9 M80.8,25.9
		v-4.5c0-0.7,0-0.8,0.4-1.1l0.1-0.1h-0.3h-1.1h0h-1.1h-0.3l0.1,0.1c0.4,0.3,0.5,0.4,0.4,1.1v4.5c0,0.5-0.1,0.7-0.5,1l-0.1,0.1h0.3
		h1.1h0h1.1h0.3l-0.1-0.1C80.9,26.5,80.8,26.4,80.8,25.9 M88.6,20.1h-0.3l0.2,0.1c0.4,0.2,0.5,0.6,0.5,1.3v3l-3.7-4.5H85h-1.7H83
		l0,0.1c0.1,0,0.5,0.3,0.8,0.6v4.8c0,0.7-0.2,1-0.7,1.2l-0.2,0.1h0.3h2.3c-0.3-0.1-0.5-0.4-0.6-0.6c-0.1-0.2-0.1-0.4-0.1-0.7v-3.8
		l4,5.1l0,0h0.3h0.7H90v-5.3c0-0.7,0.1-1,0.5-1.3l0.2-0.2H90H88.6z M72.4,20.1l-0.6,0c-0.5,0-0.9-0.1-0.9-0.1l-0.6,1.5l0.3,0.1
		c0.6-0.8,1.2-0.8,2.2-0.8h0.1v4.8c0,0.7-0.2,1.1-0.6,1.3l-0.2,0.1h0.3h1.4H75h0.3l-0.2-0.1c-0.4-0.2-0.6-0.6-0.6-1.3l0-4.8h0.4h0.3
		c0,0,0.2,0,0.2,0c0.4,0,0.7,0.1,0.9,0.2c0.1,0.1,0.1,0.3,0.1,0.6h0.3l0.5-1.4l-4.6,0H72.4z M23,20.1l-0.6,0c-0.5,0-0.9-0.1-0.9-0.1
		l-0.6,1.5l0.3,0.1c0.6-0.8,1.2-0.8,2.2-0.8h0.1v4.8c0,0.7-0.2,1.1-0.6,1.3l-0.2,0.1H23h1.4h1.2h0.3l-0.2-0.1
		c-0.4-0.2-0.6-0.6-0.6-1.3l0-4.8h0.4h0.3c0,0,0.2,0,0.2,0c0.4,0,0.7,0.1,0.9,0.2C27,21,27,21.2,27,21.5h0.3l0.5-1.4l-4.6,0H23z
		 M72.2,33.7c0.1,0.2,0.2,0.4,0.2,0.6c0,0.6-0.6,1.1-1.3,1.1c-0.4,0-0.8-0.1-1.1-0.4c-0.1-0.1-0.2-0.3-0.2-0.6
		c0-0.3,0.2-0.6,0.5-0.8c0.1,0,0.2-0.1,0.3-0.1c-0.1,0-0.2-0.1-0.3-0.2l0,0C70.1,33.2,70,33,70,32.7c0-0.5,0.5-0.9,1.2-0.9
		c0.6,0,1,0.3,1,0.7c0,0.3-0.2,0.6-0.6,0.7C71.9,33.4,72.1,33.5,72.2,33.7 M70.6,32.5c0,0.3,0.2,0.5,0.6,0.6
		c0.2-0.1,0.3-0.3,0.3-0.6c0-0.3-0.2-0.5-0.5-0.5C70.8,32.1,70.6,32.2,70.6,32.5 M71.7,34.5c0-0.4-0.2-0.7-0.9-0.9
		c-0.2,0.1-0.3,0.4-0.3,0.7c0,0.5,0.2,0.8,0.6,0.8C71.5,35.1,71.7,34.9,71.7,34.5 M106.4,26.8l-0.1,0c-0.4,0.1-0.6,0.1-0.9,0.1
		c0,0-0.1,0-0.1,0c-0.1,0-0.1,0-0.2,0c-0.6,0-1.2-0.2-1.5-0.5c-0.1-0.1-0.6-0.7-0.7-0.8l-0.9-1.2c-0.4-0.5-0.5-0.6-0.7-0.6h0v1.7
		c0,0.7,0,0.9,0.4,1.2l0.3,0.2h-0.2l-2.6,0h-0.3l0.2-0.1c0.4-0.2,0.6-0.6,0.6-1.1v-4.5c0-0.6-0.1-0.7-0.6-1.1l-0.1-0.1h0.3h2.4h0.3
		c1.3,0,1.8,0.1,2.2,0.3c0.5,0.3,0.8,0.9,0.8,1.4c0,0.9-0.5,1.5-1.5,1.7l1,1.3c1.1,1.2,1.4,1.5,2,1.8L106.4,26.8z M103.1,22
		c0-0.5-0.2-0.9-0.5-1.2c-0.2-0.2-0.6-0.3-1.1-0.3c-0.1,0-0.3,0-0.4,0v2.9h0.1c0.8,0,1.1-0.1,1.3-0.3
		C102.9,22.9,103.1,22.5,103.1,22 M59.4,32.2l0.1-0.1h-1.4l0.1,0.1c0.2,0.1,0.2,0.2,0.2,0.5v2c0,0.4,0,0.4-0.2,0.6l-0.1,0.1h1.4
		l-0.1-0.1c-0.2-0.1-0.2-0.2-0.2-0.5v-2C59.2,32.4,59.2,32.4,59.4,32.2 M61.7,26.9v-5.3c0-0.7,0.1-1,0.5-1.3l0.2-0.2h-0.7h-1.4H60
		l0.2,0.1c0.4,0.2,0.5,0.6,0.5,1.3v3l-3.7-4.5h-0.3h-1.7h-0.3l0,0.1c0.1,0,0.5,0.3,0.8,0.6v4.8c0,0.7-0.2,1-0.7,1.2l-0.2,0.1h0.3
		h2.3c-0.3-0.1-0.5-0.4-0.6-0.6c-0.1-0.2-0.1-0.4-0.1-0.7v-3.8l4,5.1l0,0h0.3h0.7H61.7z M50.6,33.7c0,0.5-0.2,0.9-0.5,1.2
		c-0.3,0.3-0.8,0.4-1.5,0.4l-0.7,0h-1.1l0.2-0.1c0.2-0.1,0.3-0.2,0.3-0.6v-1.8c0-0.4,0-0.5-0.2-0.6l-0.1-0.1h1.2c0.2,0,0.3,0,0.4,0
		c0.5,0,0.9,0.1,1.2,0.2C50.3,32.6,50.6,33.1,50.6,33.7 M49.7,33.7c0-0.5-0.2-1-0.6-1.2c-0.2-0.1-0.5-0.2-0.8-0.2l-0.3,0v2.3
		c0,0.5,0.1,0.5,0.3,0.5C49.2,35.1,49.7,34.6,49.7,33.7 M54.5,34.6c-0.2,0.3-0.6,0.5-1.1,0.5c-0.3,0-0.3,0-0.3-0.5v-0.9h0.3l0.1,0
		c0.3,0,0.5,0.1,0.6,0.4l0,0h0.1v-1h-0.1l0,0c0,0.1,0,0.1-0.1,0.2c-0.1,0.1-0.3,0.2-0.5,0.2l-0.4,0v-1.2h0.3c0.5,0,0.7,0.1,0.9,0.5
		l0,0l0.1,0l-0.1-0.7h-2.6l0.2,0.1c0.2,0.1,0.3,0.2,0.3,0.6v1.9c0,0.4-0.1,0.5-0.3,0.6l-0.2,0.1h2.6l0.2-0.7L54.5,34.6L54.5,34.6z
		 M63.7,33.7c0.1,0.2,0.2,0.4,0.2,0.6c0,0.6-0.6,1.1-1.3,1.1c-0.4,0-0.8-0.1-1.1-0.4c-0.1-0.1-0.2-0.3-0.2-0.6
		c0-0.3,0.2-0.6,0.5-0.8c0.1,0,0.2-0.1,0.3-0.1c-0.1,0-0.2-0.1-0.3-0.2l0,0c-0.2-0.1-0.3-0.4-0.3-0.7c0-0.5,0.5-0.9,1.2-0.9
		c0.6,0,1,0.3,1,0.7c0,0.3-0.2,0.6-0.6,0.7C63.4,33.4,63.6,33.5,63.7,33.7 M62.1,32.5c0,0.3,0.2,0.5,0.6,0.6
		c0.2-0.1,0.3-0.3,0.3-0.6c0-0.3-0.2-0.5-0.5-0.5C62.3,32.1,62.1,32.2,62.1,32.5 M63.2,34.5c0-0.4-0.2-0.7-0.9-0.9
		c-0.2,0.1-0.3,0.4-0.3,0.7c0,0.5,0.2,0.8,0.6,0.8C63,35.1,63.2,34.9,63.2,34.5 M68,33.7c0.1,0.2,0.2,0.4,0.2,0.6
		c0,0.6-0.6,1.1-1.3,1.1c-0.4,0-0.8-0.1-1.1-0.4c-0.1-0.1-0.2-0.3-0.2-0.6c0-0.3,0.2-0.6,0.5-0.8c0.1,0,0.2-0.1,0.3-0.1
		c-0.1,0-0.2-0.1-0.3-0.2l0,0c-0.2-0.1-0.3-0.4-0.3-0.7c0-0.5,0.5-0.9,1.2-0.9c0.6,0,1,0.3,1,0.7c0,0.3-0.2,0.6-0.6,0.7
		C67.7,33.4,67.8,33.5,68,33.7 M66.4,32.5c0,0.3,0.2,0.5,0.6,0.6c0.2-0.1,0.3-0.3,0.3-0.6c0-0.3-0.2-0.5-0.5-0.5
		C66.5,32.1,66.4,32.2,66.4,32.5 M67.5,34.5c0-0.4-0.2-0.7-0.9-0.9c-0.2,0.1-0.3,0.4-0.3,0.7c0,0.5,0.2,0.8,0.6,0.8
		C67.3,35.1,67.5,34.9,67.5,34.5"/>
</g>
</svg>
