<?xml version="1.0" encoding="utf-8"?>
<!-- Generator: Adobe Illustrator 24.1.0, SVG Export Plug-In . SVG Version: 6.00 Build 0)  -->
<svg version="1.1" id="Capa_1" xmlns="http://www.w3.org/2000/svg" xmlns:xlink="http://www.w3.org/1999/xlink" x="0px" y="0px"
	 viewBox="0 0 273.38 272.38" style="enable-background:new 0 0 273.38 272.38;" xml:space="preserve">
<style type="text/css">
	.st0{clip-path:url(#SVGID_3_);fill:url(#SVGID_4_);}
	.st1{clip-path:url(#SVGID_6_);fill:#1D1D1B;}
	.st2{fill:#CAA58E;}
	.st3{clip-path:url(#SVGID_8_);fill:url(#SVGID_9_);}
</style>
<g>
	<defs>
		<path id="SVGID_1_" d="M706.85,293.24c-0.04-0.66-0.67-1.02-1.75-1.02c-1.01,0-1.58,0.41-1.58,1.11c0,0.13,0.06,9.38,0.06,9.38
			l11.37,0.02v-4.31c0-1.98,1.62-3.6,3.6-3.6c1.98,0,3.6,1.62,3.6,3.6v4.32l17.74,0.03v-4.54c0-1.98,1.62-3.6,3.6-3.6
			c1.98,0,3.6,1.62,3.6,3.6v4.55l11.97,0.02c0,0,0.04-9.15,0.04-9.49c0-0.7-0.58-1.11-1.69-1.07c-1.19,0.04-1.14,0.62-1.38,0.96
			c-0.3-0.23-0.46-0.88-1.47-0.81c-0.94,0.07-1.5,0.36-1.57,0.98h-0.01c-0.06-0.63-0.36-1.06-1.74-0.98
			c-0.97,0.05-1.1,0.53-1.35,0.85c-0.27-0.33-0.6-0.7-1.34-0.79c-1.14-0.14-1.74,0.3-1.81,0.92h-0.01
			c-0.06-0.63-0.69-0.98-1.74-0.98c-0.94,0-1.5,0.36-1.57,0.98h-0.01c-0.06-0.63-0.69-0.98-1.75-0.98c-0.94,0-1.5,0.36-1.57,0.98
			h-0.01c-0.07-0.63-0.69-0.98-1.74-0.98c-0.95,0-1.5,0.36-1.57,0.98h-0.01c-0.06-0.63-0.69-0.98-1.74-0.98
			c-0.95,0-1.5,0.36-1.57,0.98h-0.01c-0.07-0.63-0.69-0.98-1.74-0.98c-0.94,0-1.5,0.36-1.57,0.98h-0.01
			c-0.06-0.63-0.69-0.98-1.74-0.98c-0.95,0-1.5,0.36-1.57,0.98h-0.01c-0.06-0.63-0.69-0.98-1.74-0.98c-0.94,0-1.5,0.36-1.57,0.98
			h-0.01c-0.07-0.63-0.69-0.98-1.74-0.98c-0.95,0-1.5,0.36-1.57,0.98h-0.01c-0.07-0.63-0.69-0.98-1.74-0.98
			c-0.95,0-1.5,0.36-1.57,0.98h-0.01c-0.07-0.63-0.69-0.98-1.74-0.98c-0.94,0-1.5,0.36-1.57,0.98h-0.01
			c-0.07-0.63-0.69-0.98-1.75-0.98c-0.94,0-1.5,0.36-1.57,0.98h0c0-0.02,0.01-0.04,0.01-0.06c0-0.7-0.64-1.09-1.76-1.09
			C707.46,292.22,706.9,292.6,706.85,293.24 M716.94,285.02c0-0.96,0.78-1.73,1.73-1.73c0.96,0,1.73,0.77,1.73,1.73
			s-0.77,1.73-1.73,1.73C717.71,286.75,716.94,285.97,716.94,285.02 M743.27,286.71c-0.94-0.19-1.54-1.1-1.35-2.04
			c0.19-0.94,1.1-1.54,2.04-1.35c0.94,0.19,1.54,1.1,1.35,2.04c-0.17,0.82-0.89,1.39-1.69,1.39
			C743.5,286.75,743.38,286.74,743.27,286.71 M706.23,286.67v3.2c0.56,0.37,0.6,0.35,0.66,0.35h0.14c0.25-0.33,0.72-0.51,1.39-0.51
			c0.75,0,1.28,0.18,1.55,0.51h0.38c0.25-0.33,0.72-0.51,1.39-0.51c0.75,0,1.28,0.18,1.55,0.51h0.38c0.24-0.33,0.72-0.51,1.39-0.51
			c0.75,0,1.28,0.18,1.55,0.51H717c0.25-0.33,0.72-0.51,1.39-0.51c0.75,0,1.28,0.18,1.55,0.51h0.38c0.25-0.33,0.72-0.51,1.39-0.51
			c0.75,0,1.28,0.18,1.55,0.51h0.38c0.25-0.33,0.72-0.51,1.39-0.51c0.75,0,1.28,0.18,1.55,0.51h0.38c0.25-0.33,0.72-0.51,1.39-0.51
			c0.75,0,1.28,0.18,1.55,0.51h0.38c0.25-0.33,0.72-0.51,1.39-0.51c0.75,0,1.28,0.18,1.55,0.51h0.38c0.25-0.33,0.72-0.51,1.39-0.51
			c0.75,0,1.28,0.18,1.55,0.51h0.38c0.25-0.33,0.72-0.51,1.39-0.51c0.75,0,1.28,0.18,1.55,0.51h0.38c0.25-0.33,0.72-0.51,1.39-0.51
			c0.75,0,1.28,0.18,1.55,0.51h0.38c0.25-0.33,0.72-0.51,1.39-0.51c0.75,0,1.28,0.18,1.55,0.51h0.38c0.25-0.33,0.72-0.51,1.39-0.51
			c0.69,0,1.2,0.15,1.48,0.43c0.26-0.28,0.71-0.43,1.32-0.43c0.75,0,1.28,0.18,1.55,0.51h0.38c0.25-0.33,0.72-0.51,1.39-0.51
			c0.7,0,1.2,0.16,1.48,0.45l-0.05-3.23l-12.35-6.59l-11.87,6.31l-12.82-6.37L706.23,286.67z M701.57,274.3
			c0.74,0.26,1.29,1.24,1.29,2.4v4.15h-2.76v0.57h4.2v-0.06v-0.5v-4.15c0-1.36-0.75-2.47-1.67-2.47
			C702.5,274.23,701.7,274.25,701.57,274.3 M734.46,264.05c-0.03,0.02-0.06,0.05-0.09,0.09l-3.45,4.46l-3.46-4.46
			c-0.04-0.04-0.08-0.06-0.11-0.08c-0.03-0.02-0.06-0.03-0.09-0.05h-0.05l-0.08,0.13l0.02,0.11l1.08,5.33l-6.11-0.99l-0.13,0.04
			l-0.02,0.08c0.02,0.04,0.04,0.07,0.06,0.1c0.03,0.03,0.05,0.06,0.09,0.08l5.01,3.08l-5.01,3.09c-0.03,0.02-0.05,0.04-0.08,0.07
			c-0.03,0.03-0.05,0.07-0.07,0.12v0.03l0.15,0.07l6.11-0.99l-1.11,5.45l0.02,0.11l0.1,0.02c0.04-0.01,0.08-0.03,0.12-0.06
			c0.04-0.03,0.06-0.05,0.08-0.07l3.46-4.47l3.45,4.47c0.02,0.03,0.05,0.06,0.09,0.08c0.03,0.02,0.08,0.04,0.13,0.06h0.05l0.08-0.14
			l-1.11-5.45l5.97,0.96l0.12,0.02l0.13-0.02l0.03-0.09c-0.02-0.03-0.04-0.06-0.06-0.08c-0.02-0.03-0.05-0.06-0.09-0.09l-4.99-3.09
			l4.99-3.08c0.03-0.02,0.07-0.05,0.09-0.08c0.03-0.04,0.05-0.07,0.06-0.1v-0.06l-0.15-0.07l-0.12,0.02l-5.97,0.97l1.08-5.33
			l0.02-0.11l-0.05-0.11l-0.08-0.02C734.53,264.02,734.49,264.04,734.46,264.05 M690.86,276.24c0-1.12,0.99-2.04,2.2-2.04
			c1.21,0,2.2,0.92,2.2,2.04v4.78h-4.41V276.24z M684.94,272.27h3.49v14.9h-4.4c-2.26-2.33-5.42-3.79-8.93-3.79
			c-3.59,0-6.81,1.53-9.08,3.96l-7.27,0.21l-0.16,14.9h9.68v-7c0-3.56,2.91-6.47,6.47-6.47h0.61c3.56,0,6.47,2.91,6.47,6.47v7h15.75
			v-15.41v-3.91v-10.87h11.51l-11.51-8.42L684.94,272.27z"/>
	</defs>
	<linearGradient id="SVGID_2_" gradientUnits="userSpaceOnUse" x1="658.585" y1="283.326" x2="759.0984" y2="283.326">
		<stop  offset="0" style="stop-color:#E8AD8C"/>
		<stop  offset="0.0242" style="stop-color:#EBB595"/>
		<stop  offset="0.0884" style="stop-color:#F1C7A9"/>
		<stop  offset="0.1539" style="stop-color:#F5D2B4"/>
		<stop  offset="0.2221" style="stop-color:#F6D5B8"/>
		<stop  offset="0.2681" style="stop-color:#F1CDB0"/>
		<stop  offset="0.3395" style="stop-color:#E4B79A"/>
		<stop  offset="0.4274" style="stop-color:#CE9476"/>
		<stop  offset="0.5273" style="stop-color:#B06345"/>
		<stop  offset="0.5521" style="stop-color:#A85638"/>
		<stop  offset="0.7464" style="stop-color:#9F5439"/>
		<stop  offset="0.8531" style="stop-color:#C5724B"/>
		<stop  offset="0.9548" style="stop-color:#A35D3D"/>
		<stop  offset="1" style="stop-color:#A35D3D"/>
	</linearGradient>
	<use xlink:href="#SVGID_1_"  style="overflow:visible;fill:url(#SVGID_2_);"/>
	<clipPath id="SVGID_3_">
		<use xlink:href="#SVGID_1_"  style="overflow:visible;"/>
	</clipPath>
	<linearGradient id="SVGID_4_" gradientUnits="userSpaceOnUse" x1="658.5849" y1="283.326" x2="759.0983" y2="283.326">
		<stop  offset="0" style="stop-color:#E8AD8C"/>
		<stop  offset="0.0242" style="stop-color:#EBB595"/>
		<stop  offset="0.0884" style="stop-color:#F1C7A9"/>
		<stop  offset="0.1539" style="stop-color:#F5D2B4"/>
		<stop  offset="0.2221" style="stop-color:#F6D5B8"/>
		<stop  offset="0.2681" style="stop-color:#F1CDB0"/>
		<stop  offset="0.3395" style="stop-color:#E4B79A"/>
		<stop  offset="0.4274" style="stop-color:#CE9476"/>
		<stop  offset="0.5273" style="stop-color:#B06345"/>
		<stop  offset="0.5521" style="stop-color:#A85638"/>
		<stop  offset="0.7464" style="stop-color:#9F5439"/>
		<stop  offset="0.8531" style="stop-color:#C5724B"/>
		<stop  offset="0.9548" style="stop-color:#A35D3D"/>
		<stop  offset="1" style="stop-color:#A35D3D"/>
	</linearGradient>
	<rect x="658.58" y="263.86" class="st0" width="100.51" height="38.94"/>
</g>
<g>
	<defs>
		<path id="SVGID_5_" d="M488.02,437.51l0.58,0.24c0.5,0.21,0.7,0.65,0.73,1.59v5.15c0,1.03-0.18,1.29-0.73,1.53l-0.55,0.24h7.05
			l0.6-2.05l-0.3-0.09l-0.05,0.08c-0.58,0.96-1.55,1.42-2.98,1.42c-0.84,0-0.91-0.03-0.91-1.25v-2.41h0.8l0.24-0.01
			c0.76-0.04,1.43,0.41,1.55,1.03l0.02,0.1h0.32v-2.79h-0.3l-0.02,0.1c-0.04,0.19-0.1,0.32-0.21,0.44
			c-0.31,0.32-0.84,0.52-1.38,0.52l-1.01-0.01v-3.18h0.93c1.3-0.01,2.03,0.38,2.49,1.32l0.04,0.08l0.28-0.05l-0.17-2.02H488.02z
			 M523.65,437.51l0.58,0.24c0.5,0.21,0.7,0.66,0.73,1.59v5.15c0,0.97-0.14,1.27-0.73,1.53l-0.55,0.24h7.05l0.6-2.05l-0.31-0.09
			l-0.05,0.08c-0.57,0.96-1.55,1.42-2.98,1.42c-0.84,0-0.91-0.03-0.91-1.25v-2.41h0.8l0.24-0.01c0.76-0.04,1.43,0.41,1.56,1.03
			l0.02,0.1h0.32v-2.79h-0.3l-0.02,0.1c-0.04,0.19-0.11,0.32-0.21,0.44c-0.31,0.32-0.84,0.52-1.38,0.52l-1.02-0.01v-3.18h0.93
			c1.3-0.02,2.03,0.38,2.49,1.32l0.04,0.08l0.28-0.05l-0.17-2.02H523.65z M540.67,437.51l0.33,0.23c0.58,0.4,0.62,0.48,0.62,1.34
			v5.45c-0.01,1.07-0.09,1.2-0.59,1.52l-0.36,0.23h3.91l-0.32-0.23c-0.41-0.3-0.52-0.6-0.51-1.43v-5.6c0.02-0.65,0.04-0.7,0.54-1.22
			l0.29-0.29H540.67z M478.33,444.35v-6.26l0.72-0.01c0.78-0.01,1.51,0.15,2.07,0.45c1.03,0.59,1.67,1.88,1.67,3.36
			c0,2.33-1.38,3.83-3.52,3.83C478.48,445.73,478.33,445.62,478.33,444.35 M478.38,437.51h-3.27l0.41,0.23
			c0.55,0.32,0.65,0.58,0.68,1.75v4.87c-0.04,1.08-0.16,1.35-0.77,1.67l-0.46,0.24h2.95l1.8,0.03c1.71,0,3.16-0.45,3.99-1.22
			c0.87-0.83,1.37-2.01,1.37-3.26c0-1.63-0.87-3.12-2.17-3.7c-0.91-0.41-2.04-0.62-3.36-0.62
			C479.23,437.5,478.88,437.5,478.38,437.51 M513.39,444.35v-6.26l0.72-0.01c0.78-0.01,1.52,0.15,2.07,0.45
			c1.03,0.59,1.67,1.88,1.67,3.36c0,2.33-1.38,3.83-3.52,3.83C513.54,445.73,513.39,445.62,513.39,444.35 M513.44,437.51h-3.27
			l0.41,0.23c0.55,0.32,0.65,0.58,0.68,1.75v4.87c-0.04,1.08-0.16,1.35-0.78,1.67l-0.46,0.24h2.95l1.8,0.03
			c1.71,0,3.16-0.45,3.99-1.22c0.87-0.83,1.36-2.01,1.36-3.26c0-1.63-0.87-3.12-2.16-3.7c-0.91-0.41-2.03-0.62-3.36-0.62
			C514.3,437.5,513.94,437.5,513.44,437.51 M499.56,439.8c0,0.55,0.16,1,0.51,1.43c0.37,0.44,1.02,0.8,2.31,1.29
			c1.58,0.59,2.09,1.03,2.09,1.77c0,0.84-0.72,1.44-1.71,1.44c-1.35,0-2.45-0.88-2.93-2.35l-0.03-0.09h-0.36l0.06,1.96l0.03,0.04
			c0.52,0.59,2.18,1.15,3.4,1.15c2.12,0,3.6-1.16,3.6-2.81c0-0.64-0.22-1.2-0.66-1.68c-0.44-0.47-1.21-0.89-2.35-1.27
			c-1.62-0.54-1.9-0.89-1.9-1.62c0-0.76,0.54-1.27,1.34-1.27c1.07,0,2.23,0.83,2.59,1.84l0.03,0.09l0.36-0.03l-0.11-2.35h-0.21
			l-0.01,0.01c-0.2,0.25-0.3,0.3-0.42,0.3c-0.06,0-0.12-0.02-0.35-0.11c-0.86-0.33-1.45-0.46-2.11-0.46
			C500.88,437.11,499.56,438.25,499.56,439.8 M551.58,443.61c0-0.9,0.27-1.58,0.79-1.95c1.76,0.56,2.42,1.2,2.42,2.37
			c0,0.99-0.63,1.69-1.52,1.69C552.23,445.71,551.58,444.91,551.58,443.61 M551.68,438.58c0-0.76,0.45-1.25,1.15-1.25
			c0.76,0,1.29,0.6,1.29,1.47c0,0.66-0.26,1.24-0.7,1.53C552.16,439.88,551.68,439.4,551.68,438.58 M549.89,439.17
			c0,0.71,0.35,1.4,0.92,1.79l0,0c0.26,0.17,0.48,0.29,0.8,0.41c-0.36,0.15-0.55,0.24-0.79,0.37c-0.86,0.44-1.33,1.18-1.33,2.09
			c0,0.57,0.22,1.15,0.57,1.52c0.64,0.67,1.75,1.07,2.95,1.07c2.12,0,3.66-1.23,3.66-2.93c0-0.62-0.2-1.18-0.59-1.66
			c-0.36-0.44-0.85-0.74-1.92-1.18c1.11-0.38,1.74-1.09,1.74-2c0-1.16-1.17-1.98-2.86-1.98
			C551.16,436.67,549.89,437.67,549.89,439.17 M563.27,443.61c0-0.9,0.27-1.58,0.79-1.95c1.76,0.56,2.42,1.2,2.42,2.37
			c0,0.99-0.62,1.69-1.52,1.69C563.92,445.71,563.27,444.91,563.27,443.61 M563.38,438.58c0-0.76,0.45-1.25,1.15-1.25
			c0.76,0,1.29,0.6,1.29,1.47c0,0.66-0.27,1.24-0.69,1.53C563.85,439.88,563.38,439.4,563.38,438.58 M561.58,439.17
			c0,0.71,0.35,1.4,0.92,1.79v0c0.26,0.17,0.48,0.29,0.81,0.41c-0.36,0.15-0.55,0.24-0.79,0.37c-0.86,0.44-1.33,1.18-1.33,2.09
			c0,0.57,0.22,1.15,0.57,1.52c0.65,0.67,1.75,1.07,2.95,1.07c2.12,0,3.66-1.23,3.66-2.93c0-0.62-0.2-1.18-0.59-1.66
			c-0.36-0.44-0.85-0.74-1.92-1.18c1.11-0.38,1.74-1.09,1.74-2c0-1.16-1.18-1.98-2.86-1.98
			C562.85,436.67,561.58,437.67,561.58,439.17 M574.91,443.61c0-0.9,0.27-1.58,0.79-1.95c1.76,0.56,2.42,1.2,2.42,2.37
			c0,0.99-0.63,1.69-1.52,1.69C575.56,445.71,574.91,444.91,574.91,443.61 M575.01,438.58c0-0.76,0.45-1.25,1.15-1.25
			c0.76,0,1.29,0.6,1.29,1.47c0,0.66-0.26,1.24-0.7,1.53C575.49,439.88,575.01,439.4,575.01,438.58 M573.21,439.17
			c0,0.71,0.35,1.4,0.92,1.79l0,0c0.26,0.17,0.48,0.29,0.8,0.41c-0.36,0.15-0.55,0.24-0.79,0.37c-0.86,0.44-1.33,1.18-1.33,2.09
			c0,0.57,0.22,1.15,0.57,1.52c0.65,0.67,1.75,1.07,2.95,1.07c2.12,0,3.66-1.23,3.66-2.93c0-0.62-0.2-1.18-0.59-1.66
			c-0.36-0.44-0.85-0.74-1.92-1.18c1.11-0.38,1.74-1.09,1.74-2c0-1.16-1.17-1.98-2.86-1.98
			C574.49,436.67,573.21,437.67,573.21,439.17 M414.89,404.6h-3.08h-0.13h-3.08h-0.78l0.37,0.27c1.17,0.85,1.28,1.13,1.23,3.04
			v12.43c0,1.37-0.22,1.84-1.26,2.61l-0.36,0.27h0.78h3.1h0.13h3.1h0.78l-0.36-0.27c-1.04-0.77-1.26-1.23-1.26-2.61v-12.43
			c-0.05-1.91,0.06-2.19,1.23-3.04l0.37-0.27H414.89z M603.65,404.6h-3.08h-0.13h-3.08h-0.78l0.37,0.27
			c1.17,0.85,1.29,1.13,1.23,3.04v12.43c0,1.37-0.22,1.84-1.26,2.61l-0.36,0.27h0.78h3.1h0.13h3.1h0.78l-0.36-0.27
			c-1.04-0.77-1.26-1.23-1.26-2.61v-12.43c-0.05-1.91,0.06-2.19,1.23-3.04l0.37-0.27H603.65z M658.58,405.83
			c0.34-0.01,0.8-0.03,1.19-0.04c1.28,0.04,2.28,0.33,2.88,0.87c0.84,0.69,1.35,1.88,1.35,3.19c0,1.35-0.5,2.52-1.35,3.16
			c-0.7,0.55-1.56,0.71-3.68,0.71h-0.39V405.83z M659.61,404.6h-6.66h-0.78l0.37,0.27c1.4,1.02,1.48,1.18,1.53,2.91v12.24
			c0,1.38-0.36,2.34-1.53,2.9l-0.59,0.28h0.78l7.19,0.02h0.46l-0.72-0.46c-1.01-0.81-1.05-1.47-1.08-3.35v-4.61h0.13
			c0.65,0.03,0.93,0.31,2.04,1.76l2.58,3.35c0.16,0.21,1.66,1.85,1.89,2.06c0.97,0.85,2.55,1.38,4.14,1.38c0.16,0,0.31,0,0.46-0.01
			c0.11,0.01,0.21,0.01,0.32,0.01c0.72,0,1.27-0.07,2.45-0.33l0.38-0.09l-0.35-0.19c-1.58-0.86-2.5-1.71-5.43-5.02l-2.85-3.51
			c2.68-0.71,4.15-2.39,4.15-4.76c0-1.56-0.81-3.05-2.1-3.89c-1.18-0.76-2.42-0.96-6.02-0.96H659.61z M432.4,404.6h-0.78h-10.6
			h-0.78l0.88,0.29c1.29,0.42,1.8,1.31,1.82,3.19v10.54c0.08,2.9-0.28,3.71-1.91,4.31l-0.77,0.29h0.78h14.06l1.35-5.19h-0.78
			c-1.25,2.08-4.04,3.51-6.69,3.56c-1.25-0.05-1.55-0.5-1.55-2.1l0.03-1.13v-4.21h0.76h0.78h0.04c2.01,0.05,3.62,0.51,4.38,2.02
			h0.29l-0.03-5.83h-0.32c-0.57,1.58-2.09,1.95-4.37,1.97h-0.53h-1v-6.18h1.49c2.67,0.03,4.55,0.68,5.71,2.58h0.8l-0.4-4.13
			C435.06,404.58,433.67,404.65,432.4,404.6 M523.84,404.6h-0.78h-10.6h-0.78l0.88,0.29c1.29,0.42,1.8,1.31,1.82,3.19v10.54
			c0.08,2.9-0.28,3.71-1.91,4.31l-0.77,0.29h0.78h14.06l1.35-5.19h-0.78c-1.25,2.08-4.04,3.51-6.69,3.56
			c-1.25-0.05-1.55-0.5-1.55-2.1l0.03-1.13v-4.21h0.75h0.78h0.04c2.01,0.05,3.62,0.51,4.38,2.02h0.29l-0.03-5.83h-0.32
			c-0.57,1.58-2.09,1.95-4.37,1.97h-0.53h-1v-6.18h1.49c2.67,0.03,4.55,0.68,5.71,2.58h0.8l-0.4-4.13
			C526.51,404.58,525.12,404.65,523.84,404.6 M567.42,404.6h-0.78h-10.6h-0.78l0.88,0.29c1.29,0.42,1.8,1.31,1.82,3.19v10.54
			c0.08,2.9-0.28,3.71-1.91,4.31l-0.77,0.29h0.78h14.06l1.35-5.19h-0.78c-1.25,2.08-4.04,3.51-6.69,3.56
			c-1.25-0.05-1.55-0.5-1.55-2.1l0.03-1.13v-4.21h0.75h0.78h0.04c2.01,0.05,3.62,0.51,4.38,2.02h0.29l-0.03-5.83h-0.32
			c-0.57,1.58-2.09,1.95-4.37,1.97h-0.53h-1v-6.18h1.49c2.67,0.03,4.54,0.68,5.71,2.58h0.8l-0.4-4.13
			C570.08,404.58,568.7,404.65,567.42,404.6 M644.86,404.6h-0.78h-10.6h-0.78l0.88,0.29c1.29,0.42,1.8,1.31,1.83,3.19v10.54
			c0.08,2.9-0.28,3.71-1.91,4.31l-0.77,0.29h0.78h14.06l1.35-5.19h-0.78c-1.25,2.08-4.04,3.51-6.69,3.56
			c-1.25-0.05-1.55-0.5-1.55-2.1l0.03-1.13v-4.21h0.76h0.78h0.04c2.01,0.05,3.62,0.51,4.38,2.02h0.29l-0.03-5.83h-0.32
			c-0.57,1.58-2.09,1.95-4.37,1.97h-0.53h-1v-6.18h1.49c2.67,0.03,4.54,0.68,5.71,2.58h0.8l-0.4-4.13
			C647.52,404.58,646.13,404.65,644.86,404.6 M401.16,404.58h-3.86h-0.78l0.43,0.27c0.98,0.62,1.36,1.61,1.41,3.64v8.29
			l-10.25-12.21h-0.78h-4.63h-0.78l-0.02,0.29c0.31,0.04,1.5,0.89,2.16,1.59v13.06c-0.05,1.87-0.52,2.73-1.87,3.42l-0.55,0.28h0.78
			h6.39c-0.75-0.34-1.35-0.96-1.64-1.73c-0.2-0.44-0.28-1.02-0.3-1.97V409.2l10.9,13.96l0.04,0.06h0.78h1.79h0.78v-14.64
			c0.05-1.87,0.33-2.84,1.29-3.58l0.5-0.42H401.16z M550.56,404.58h-3.86h-0.78l0.43,0.27c0.98,0.62,1.36,1.61,1.42,3.64v8.29
			l-10.25-12.21h-0.78h-4.63h-0.78l-0.02,0.29c0.31,0.04,1.5,0.89,2.16,1.59v13.06c-0.05,1.87-0.53,2.73-1.87,3.42l-0.55,0.28h0.78
			h6.39c-0.75-0.34-1.34-0.96-1.64-1.73c-0.2-0.44-0.28-1.02-0.3-1.97V409.2l10.9,13.96l0.04,0.06h0.78h1.79h0.78v-14.64
			c0.05-1.87,0.33-2.84,1.29-3.58l0.49-0.42H550.56z M628.22,404.58h-3.86h-0.78l0.43,0.27c0.98,0.62,1.36,1.61,1.42,3.64v8.29
			l-10.26-12.21h-0.78h-4.63h-0.78l-0.02,0.29c0.31,0.04,1.5,0.89,2.16,1.59v13.06c-0.05,1.87-0.53,2.73-1.87,3.42l-0.55,0.28h0.78
			h6.39c-0.75-0.34-1.35-0.96-1.64-1.73c-0.2-0.44-0.28-1.02-0.3-1.97V409.2l10.9,13.96l0.04,0.06h0.78h1.79h0.78v-14.64
			c0.05-1.87,0.33-2.84,1.29-3.58l0.49-0.42H628.22z M438.75,408.27l0.92,0.31c1.6-2.31,3.21-2.32,5.9-2.32h0.37v13.07
			c0,1.93-0.49,3.11-1.51,3.61l-0.57,0.28h0.78h3.81h3.32h0.78l-0.57-0.28c-1.02-0.5-1.51-1.68-1.51-3.61l-0.01-13.07h1.06h0.78
			c0.1,0,0.55,0,0.65-0.01c0.97,0.03,2.03,0.15,2.39,0.51c0.32,0.31,0.32,0.78,0.34,1.74h0.76l1.43-3.87l-12.47-0.03h-0.78
			l-1.67,0.02c-1.34,0.04-2.54-0.36-2.54-0.36L438.75,408.27z M574.04,408.27l0.92,0.31c1.6-2.31,3.21-2.32,5.9-2.32h0.37v13.07
			c0,1.93-0.49,3.11-1.51,3.61l-0.57,0.28h0.78h3.81h3.32h0.78l-0.58-0.28c-1.02-0.5-1.51-1.68-1.51-3.61l-0.01-13.07h1.06h0.78
			c0.1,0,0.55,0,0.64-0.01c0.97,0.03,2.03,0.15,2.39,0.51c0.32,0.31,0.32,0.78,0.34,1.74h0.76l1.43-3.87l-12.48-0.03h-0.78
			l-1.67,0.02c-1.34,0.04-2.53-0.36-2.53-0.36L574.04,408.27z M464.08,413.89c0-4.6,2.56-8.33,5.72-8.33c3.16,0,5.72,3.73,5.72,8.33
			c0,4.6-2.56,8.33-5.72,8.33C466.64,422.22,464.08,418.49,464.08,413.89 M458.95,413.99c0,5.48,4.86,9.92,10.86,9.92
			c6,0,10.86-4.44,10.86-9.92c0-5.48-4.86-9.92-10.86-9.92C463.81,404.07,458.95,408.51,458.95,413.99 M499.92,404.03
			c-3.71,0-6.2,2.06-6.2,5.13c0,2.53,1.71,4.2,6.09,5.94l0.37,0.14c1.52,0.59,1.58,0.62,2.08,0.94c1.3,0.83,1.94,1.81,1.94,3.01
			c0,1.82-1.46,3.32-3.41,3.33c-3.7-0.24-5.69-3.06-6.61-4.93h-0.64l0.04,3.9l0.05,0.04c0.28,0.25,0.5,0.39,0.96,0.63
			c2.2,1.2,4.41,1.65,6.49,1.59c2.28-0.07,4-0.54,5.27-1.63c1.29-1.09,2.09-2.77,2.09-4.38c0-1.04-0.31-2-0.91-2.86
			c-0.66-0.98-1.87-1.78-3.81-2.53c-3.91-1.55-4.05-1.61-4.8-2.29c-0.52-0.44-0.86-1.2-0.86-1.92c0-1.49,1.18-2.63,2.78-2.86
			c2.75-0.35,4.69,1.45,5.2,2.99h0.89l-0.02-3.55l-0.84-0.02l-0.05,0.08c-0.11,0.18-0.29,0.52-0.78,0.3
			c-0.11-0.04-0.24-0.09-0.41-0.17c-1.24-0.58-2.7-0.89-4.13-0.89H499.92z"/>
	</defs>
	<use xlink:href="#SVGID_5_"  style="overflow:visible;fill:#1D1D1B;"/>
	<clipPath id="SVGID_6_">
		<use xlink:href="#SVGID_5_"  style="overflow:visible;"/>
	</clipPath>
	<rect x="381.64" y="404.03" class="st1" width="291.35" height="42.42"/>
</g>
<rect x="1142.52" y="385.71" class="st2" width="389.57" height="271.29"/>
<g>
	<defs>
		<path id="SVGID_7_" d="M110.71,269.23l2.63,0.52l8.52-42.84l-2.62-0.52L110.71,269.23z M154.86,226.91l8.52,42.84l2.63-0.52
			l-8.52-42.84L154.86,226.91z M62.25,248.59l2.23,1.49l24.27-36.32l-2.23-1.49L62.25,248.59z M187.97,213.76l24.27,36.32l2.23-1.49
			l-24.27-36.32L187.97,213.76z M25.38,210.98l1.49,2.23l36.32-24.27l-1.49-2.23L25.38,210.98z M213.53,188.94l36.32,24.27
			l1.49-2.23l-36.32-24.27L213.53,188.94z M5.71,162.12l0.52,2.62l42.84-8.52l-0.52-2.62L5.71,162.12z M227.65,156.22l42.84,8.52
			l0.52-2.62l-42.84-8.52L227.65,156.22z M5.71,112.08l42.84,8.52l0.52-2.62l-42.84-8.52L5.71,112.08z M227.65,117.97l0.52,2.62
			l42.84-8.52l-0.52-2.62L227.65,117.97z M135.95,99.76c-1.96,0-4.44-0.43-5.72-0.43c-0.68,0-1.13,0.09-1.13,0.6
			c0,0.6,2.79,0.26,3.99,2.14c0.9,1.46,1.2,3.9,1.2,7.32v40.36c0,1.03,0.02,2.55-0.35,2.55c-0.45,0-1.53-1.86-3.26-4
			c0,0-31.69-48.67-32.14-48.67c-0.6,0-0.75,0.77-0.75,3.85c0,0-0.9,35.5-0.76,43.71c0.05,2.74-1.41,9.11-8.07,7.5
			c-2.31-0.56-1.89,1.28-1.18,1.58c0.59,0.79,5.12,0.79,7.29,7.68c5.72,13.99,19.34,20.52,32.91,20.46
			c5.62-0.02,10.91-1.41,15.53-3.84c0.43-0.23,0.81-0.47,1.14-0.71c0.27-0.16,0.54-0.32,0.8-0.49c5.27-3.54,6.48-7.72,4.07-11.32
			c-1.82-2.71-5.45-2.64-7.18-1.47c-0.6,0.4-0.78,0.66-0.58,0.96c0.07,0.1,0.29,0.16,0.55,0.2c0.93,0.16,2.84,0.91,2.93,3.4
			c0.09,2.45-2.33,12.26-18.43,10.95c-19.56-1.6-25.74-16.11-25.13-33.91c0.02-0.5-0.19-29.25-0.46-31.43l32.36,46.92
			c2.44,3.81,2.6,3.66,3.5,3.66c0.6,0,1.24-0.82,1-6.54l0.14-51.92c0-3.34,0.3-6.81,1.35-7.58c1.28-0.86,3.38-0.69,3.38-1.45
			c0-0.51-0.75-0.51-1.5-0.51C140.01,99.33,137.83,99.76,135.95,99.76 M148.68,113.48c0,8.28,7.66,12.84,13.61,16.39
			c7.97,4.72,14.54,9.51,14.54,18.87c0,6.65-7.16,15.74-16.31,14.68c-17.23-2-16.55-22.46-7.46-26.3c1.27-0.54,2.6-0.78,4-0.69
			c1.4,0.09,2.72,0.6,3.95,1.52c0.82,0.68,1.45,1.46,1.9,2.35c0.44,0.89,0.7,1.78,0.77,2.67c0.07,0.89,0.02,2.35-0.43,3.08
			c-2.06,3.27-4.8,0.89-5.82,0.46c-0.62-0.24-0.92,0-0.92,0.73c-0.07,1.47,0.37,2.61,1.33,3.41c0.96,0.8,2.12,1.24,3.48,1.33
			c1.37,0.09,2.73-0.23,4.1-0.97c1.37-0.74,2.42-1.93,3.18-3.59c0.48-1.04,0.72-2.13,0.72-3.27s-0.21-2.24-0.62-3.31
			c-0.41-1.07-1.01-2.08-1.79-3.04c-0.79-0.95-1.73-1.73-2.82-2.35c-1.71-0.92-3.56-1.98-8.02-1.72
			c-6.42,0.28-13.49,5.79-13.49,15.85c0,9.67,8.2,17.48,20.03,17.48c15,0,22.19-9.98,22.19-20.34c0-9.12-5.03-14.69-10.75-19.02
			c-7.89-5.95-17.25-8.74-17.25-15.85c0-6.11,3.94-10.13,9.2-10.13c5.57,0,10.98,5.49,12.45,10.36c0.31,1,0.54,1.39,1,1.39
			c0.46,0,0.93-0.54,0.93-1.24c0-4.02-1.24-6.65-1.24-9.12c0-1.24,1.01-2.55,1.01-3.09c0-0.39-0.23-0.7-0.77-0.7
			c-0.62,0-1.39,0.93-3.02,0.93c-2.55,0-5.1-1.01-9.59-1.01C155.72,99.25,148.68,104.04,148.68,113.48 M76.33,137.1
			c0-34.21,27.83-62.03,62.03-62.03c34.2,0,62.03,27.83,62.03,62.03c0,34.2-27.83,62.03-62.03,62.03
			C104.15,199.12,76.33,171.3,76.33,137.1 M73.24,137.1c0,35.91,29.21,65.12,65.12,65.12c35.91,0,65.12-29.21,65.12-65.12
			c0-35.91-29.21-65.12-65.12-65.12C102.45,71.97,73.24,101.19,73.24,137.1 M68.62,137.1c0-38.46,31.29-69.74,69.74-69.74
			c38.45,0,69.74,31.29,69.74,69.74c0,38.46-31.29,69.75-69.74,69.75C99.9,206.84,68.62,175.55,68.62,137.1 M66.49,137.1
			c0,39.63,32.24,71.87,71.87,71.87c39.63,0,71.87-32.24,71.87-71.87s-32.24-71.87-71.87-71.87C98.73,65.23,66.49,97.47,66.49,137.1
			 M25.38,63.22L61.7,87.49l1.49-2.23L26.87,60.99L25.38,63.22z M213.53,85.26l1.49,2.23l36.32-24.27l-1.49-2.22L213.53,85.26z
			 M62.25,25.61l24.27,36.32l2.23-1.49L64.48,24.12L62.25,25.61z M187.97,60.44l2.23,1.49l24.27-36.32l-2.23-1.49L187.97,60.44z
			 M110.29,56.78c7.51-2.62,15.33-4.17,23.25-4.62l1.46-0.08V22.16h6.7v29.92l1.46,0.08c7.93,0.44,15.75,2,23.26,4.62l1.38,0.48
			l11.44-27.64l6.19,2.57L174,59.81l1.31,0.63c7.12,3.44,13.74,7.88,19.7,13.2l1.09,0.97l21.16-21.16l4.74,4.74l-21.16,21.16
			l0.97,1.09c5.32,5.96,9.76,12.59,13.2,19.7l0.64,1.31l27.62-11.44l2.57,6.19l-27.63,11.45l0.48,1.38
			c2.62,7.5,4.17,15.32,4.61,23.25l0.08,1.46h29.92v6.7h-29.92l-0.08,1.46c-0.44,7.93-2,15.75-4.62,23.25l-0.48,1.38l27.63,11.45
			l-2.57,6.19l-27.62-11.44l-0.64,1.31c-3.44,7.11-7.88,13.74-13.2,19.7l-0.98,1.09L222,216l-4.74,4.74l-21.16-21.16l-1.09,0.97
			c-5.96,5.32-12.58,9.76-19.7,13.2l-1.31,0.63l11.44,27.62l-6.19,2.56l-11.45-27.64l-1.38,0.48c-7.5,2.62-15.32,4.17-23.25,4.62
			l-1.46,0.08v29.92h-6.7v-29.92l-1.46-0.08c-7.93-0.44-15.75-2-23.25-4.62l-1.38-0.48l-11.45,27.64l-6.19-2.56l11.44-27.62
			l-1.31-0.63c-7.11-3.44-13.74-7.88-19.7-13.2l-1.09-0.97l-21.16,21.16L54.71,216l21.16-21.16l-0.97-1.09
			c-5.32-5.96-9.76-12.59-13.2-19.7l-0.64-1.31l-27.62,11.44l-2.56-6.19l27.63-11.45l-0.48-1.38c-2.62-7.5-4.17-15.32-4.62-23.25
			l-0.08-1.46H23.42v-6.7h29.92l0.08-1.46c0.44-7.93,2-15.75,4.61-23.25l0.48-1.38L30.89,96.21l2.56-6.19l27.62,11.44l0.64-1.31
			c3.44-7.11,7.88-13.74,13.2-19.7l0.97-1.09L54.71,58.19l4.74-4.74l21.16,21.16l1.09-0.97c5.96-5.32,12.58-9.76,19.7-13.2
			l1.31-0.63L91.28,32.19l6.19-2.57l11.44,27.64L110.29,56.78z M131.92,19.07v30.1c-7.23,0.52-14.37,1.94-21.26,4.22l-11.52-27.8
			l-11.9,4.93l11.51,27.79c-6.45,3.25-12.49,7.3-18.01,12.07L59.45,49.09l-9.11,9.11l21.29,21.29C66.86,85,62.81,91.04,59.56,97.49
			L31.78,85.98l-4.93,11.91l27.8,11.51c-2.28,6.89-3.7,14.03-4.22,21.26h-30.1v12.88h30.1c0.52,7.23,1.94,14.37,4.22,21.26
			l-27.8,11.52l4.93,11.9l27.79-11.51c3.25,6.45,7.3,12.5,12.07,18.01L50.34,216l9.11,9.11l21.29-21.29
			c5.51,4.76,11.56,8.82,18,12.06l-11.51,27.79l11.9,4.93l11.52-27.8c6.89,2.28,14.03,3.7,21.26,4.22v30.1h12.88v-30.1
			c7.23-0.52,14.37-1.94,21.26-4.22l11.52,27.8l11.9-4.93l-11.51-27.79c6.45-3.25,12.49-7.3,18.01-12.06l21.29,21.29l9.11-9.11
			l-21.29-21.29c4.77-5.51,8.82-11.56,12.07-18.01l27.79,11.51l4.93-11.9l-27.8-11.52c2.28-6.89,3.7-14.03,4.22-21.26h30.1v-12.88
			h-30.1c-0.52-7.23-1.94-14.37-4.22-21.26l27.8-11.51l-4.93-11.91l-27.79,11.51c-3.25-6.45-7.3-12.5-12.07-18.01l21.29-21.29
			l-9.11-9.11l-21.29,21.29c-5.51-4.77-11.56-8.82-18.01-12.07l11.51-27.79l-11.9-4.93l-11.51,27.8c-6.89-2.28-14.03-3.7-21.26-4.22
			v-30.1H131.92z M110.71,4.97l8.52,42.84l2.62-0.52l-8.52-42.84L110.71,4.97z M154.86,47.29l2.62,0.52l8.52-42.84l-2.63-0.52
			L154.86,47.29z"/>
	</defs>
	<clipPath id="SVGID_8_">
		<use xlink:href="#SVGID_7_"  style="overflow:visible;"/>
	</clipPath>
	
		<linearGradient id="SVGID_9_" gradientUnits="userSpaceOnUse" x1="-284.4393" y1="515.062" x2="-282.8496" y2="515.062" gradientTransform="matrix(166.8901 0 0 -166.8901 47475.8164 86095.8438)">
		<stop  offset="0" style="stop-color:#E8AD8C"/>
		<stop  offset="0.0242" style="stop-color:#EBB595"/>
		<stop  offset="0.0884" style="stop-color:#F1C7A9"/>
		<stop  offset="0.1539" style="stop-color:#F5D2B4"/>
		<stop  offset="0.2221" style="stop-color:#F6D5B8"/>
		<stop  offset="0.2681" style="stop-color:#F1CDB0"/>
		<stop  offset="0.3395" style="stop-color:#E4B79A"/>
		<stop  offset="0.4274" style="stop-color:#CE9476"/>
		<stop  offset="0.5273" style="stop-color:#B06345"/>
		<stop  offset="0.5521" style="stop-color:#A85638"/>
		<stop  offset="0.7464" style="stop-color:#9F5439"/>
		<stop  offset="0.8531" style="stop-color:#C5724B"/>
		<stop  offset="0.9548" style="stop-color:#A35D3D"/>
		<stop  offset="1" style="stop-color:#A35D3D"/>
	</linearGradient>
	<rect x="5.71" y="4.44" class="st3" width="265.3" height="265.31"/>
</g>
</svg>
